<?xml version="1.0" standalone="no"?>
<!DOCTYPE svg PUBLIC "-//W3C//DTD SVG 20010904//EN"
 "http://www.w3.org/TR/2001/REC-SVG-20010904/DTD/svg10.dtd">
<svg version="1.0" xmlns="http://www.w3.org/2000/svg"
 width="700.000000pt" height="700.000000pt" viewBox="0 0 700.000000 700.000000"
 preserveAspectRatio="xMidYMid meet">
<metadata>
Created by potrace 1.14, written by Peter Selinger 2001-2017
</metadata>
<g transform="translate(0.000000,700.000000) scale(0.100000,-0.100000)"
fill="#000000" stroke="none">
<path d="M3388 5795 c-2 -1 -52 -5 -113 -8 -474 -25 -927 -250 -1214 -603
l-33 -42 -57 26 c-138 64 -347 -6 -516 -173 -119 -117 -189 -304 -210 -560 -9
-108 -10 -114 -45 -235 -17 -58 -40 -143 -51 -190 -11 -47 -22 -93 -25 -102
-15 -62 -42 -206 -49 -258 -3 -25 -8 -52 -10 -60 -27 -102 -39 -480 -22 -655
7 -69 18 -140 42 -270 16 -86 90 -330 133 -438 19 -49 19 -49 -5 -145 -24 -96
-94 -410 -108 -487 -5 -22 -10 -47 -11 -55 -2 -8 -7 -37 -10 -65 -4 -27 -10
-72 -14 -99 -11 -71 -10 -301 2 -376 13 -84 61 -229 93 -280 14 -22 25 -42 25
-45 0 -3 9 -15 20 -27 11 -12 20 -25 20 -29 0 -4 -41 -44 -92 -90 -136 -125
-149 -137 -203 -188 -75 -70 -112 -94 -195 -126 -132 -49 -390 -188 -390 -210
0 -3 1415 -5 3145 -5 1969 0 3145 4 3145 9 0 6 -11 16 -24 23 -14 7 -64 36
-113 65 -83 49 -192 100 -293 137 -25 9 -63 33 -85 52 -38 34 -205 188 -309
285 l-50 47 25 33 c56 75 111 201 124 289 3 14 9 48 14 75 10 47 7 331 -3 385
-3 14 -14 82 -25 152 -22 132 -64 332 -107 500 -13 54 -25 108 -25 120 0 13
24 95 55 183 31 88 58 169 60 180 2 11 11 51 20 89 45 192 61 342 60 571 0
185 -3 225 -30 405 -9 58 -18 114 -19 125 -2 11 -11 56 -20 100 -9 44 -19 91
-21 105 -3 14 -27 104 -55 200 -52 183 -56 200 -64 290 -14 166 -53 328 -105
435 -113 234 -444 400 -623 311 l-50 -25 -36 42 c-155 182 -339 325 -554 431
-105 52 -285 118 -352 130 -16 3 -45 10 -63 15 -18 5 -35 10 -37 10 -3 0 -24
3 -48 6 -23 4 -55 8 -72 10 -34 5 -238 5 -299 1 -22 -1 -59 1 -83 4 -24 4 -44
6 -45 5z m-2012 -2494 c11 -75 11 -318 1 -411 -13 -120 -63 -400 -72 -400 -2
0 -8 39 -15 88 -6 48 -13 101 -15 117 -23 164 -22 533 1 695 14 104 27 176 32
185 7 11 56 -187 68 -274z m4332 189 c44 -261 46 -559 6 -880 -9 -69 -17 -126
-19 -128 -1 -2 -9 28 -16 65 -7 37 -14 70 -14 73 -1 3 -5 25 -9 50 -5 25 -10
54 -12 65 -2 11 -7 43 -10 70 -3 28 -8 61 -11 75 -3 14 -6 97 -8 185 -3 176 5
250 52 442 20 80 26 78 41 -17z m-3793 -1207 c25 -116 26 -130 19 -275 -14
-291 -8 -619 16 -748 5 -30 12 -68 14 -84 3 -16 10 -52 17 -81 6 -30 9 -62 5
-72 -13 -30 -109 280 -131 421 -4 21 -9 48 -11 60 -3 11 -7 44 -10 71 -3 28
-9 79 -14 115 -4 36 -8 151 -8 256 0 169 8 256 32 349 1 6 8 36 16 68 7 32 17
54 20 50 4 -4 20 -63 35 -130z m3241 15 c27 -108 28 -123 29 -348 0 -205 -5
-310 -19 -385 -5 -30 -15 -86 -21 -125 -19 -115 -104 -401 -126 -425 -14 -14
-11 36 7 112 8 37 17 81 20 98 23 170 27 238 28 420 1 185 -8 444 -15 470 -3
8 10 108 16 125 1 3 10 42 20 88 10 45 21 82 25 82 4 0 20 -51 36 -112z
m-3410 -743 c15 -82 80 -317 95 -345 25 -46 109 -259 109 -277 0 -30 -15 -38
-110 -61 l-85 -21 -47 51 c-35 38 -45 56 -43 76 2 15 6 95 10 177 3 83 7 161
9 175 3 14 7 57 11 95 3 39 8 93 11 120 2 28 6 59 8 70 3 11 5 29 6 40 l2 20
5 -20 c2 -11 11 -56 19 -100z m3538 55 c11 -81 15 -114 20 -170 19 -202 24
-282 27 -407 1 -87 -7 -109 -63 -160 l-23 -21 -85 21 c-47 12 -91 26 -98 31
-21 13 -10 56 56 216 59 144 119 344 143 472 7 37 14 67 15 65 1 -1 5 -22 8
-47z m362 -587 c-3 -83 -12 -156 -26 -207 -11 -44 -21 -81 -23 -82 -1 -1 -16
4 -33 11 l-32 13 3 125 3 124 37 49 c21 27 42 59 48 72 21 46 27 18 23 -105z
m-4257 80 c11 -21 31 -51 45 -67 14 -16 26 -36 26 -45 6 -220 5 -233 -12 -242
-45 -24 -58 -3 -82 134 -9 55 -10 77 -2 77 8 0 8 2 0 8 -15 9 -19 172 -5 172
6 0 19 -17 30 -37z"/>
</g>
</svg>
